<?xml version="1.0" encoding="utf-8"?>

<!DOCTYPE svg PUBLIC "-//W3C//DTD SVG 1.1//EN" "http://www.w3.org/Graphics/SVG/1.1/DTD/svg11.dtd">
<svg version="1.1" id="Layer_1" xmlns="http://www.w3.org/2000/svg" xmlns:xlink="http://www.w3.org/1999/xlink" x="0px" y="0px"
	 viewBox="250.8542 0 2058.2915 1600.1001" enable-background="new 250.8542 0 2058.2915 1600.1001" xml:space="preserve">
<g>
	<path fill="#313131" stroke="#313131" stroke-width="0.2" d="M1888.7236,204.8322c23.3486-2.3316,46.6652,1.0292,69.821,3.8754
		c25.5518,4.0523,50.6372,10.5809,75.2725,18.412c6.1587,2.1548,11.9637,5.2101,18.0422,7.5739
		c28.0923,10.9829,53.8372,27.5779,76.2532,47.6784c18.6694,16.5306,32.5308,37.4834,46.4883,57.9377
		c8.8123,13.5558,17.8977,27.7387,20.1973,44.0764c2.3154,16.5467,6.4321,32.9809,5.7566,49.7849
		c0.3057,18.7819-3.7305,37.194-6.3035,55.6864c-4.1006,20.1487-8.8923,40.4744-18.219,58.9507
		c-5.9819,12.6232-11.9961,25.2463-18.5889,37.5638c-13.8936,29.2985-33.2705,55.4131-51.3772,82.1548
		c-7.8149,10.7578-13.6843,22.7859-21.9978,33.206c-14.2312-6.8502-28.0764-14.4402-42.3076-21.2744
		c-8.4261-4.6312-17.5919-8.7156-23.9757-16.1608c15.228-14.4885,31.9196-28.591,40.6832-48.2252
		c9.3105-17.1256,11.9478-37.2422,9.3428-56.4261c-2.573-18.991-18.0742-32.9005-34.3799-41.1015
		c-17.3025-8.7639-38.0463-9.8251-56.3136-3.4734c-17.2061,4.4221-30.9547,17.9136-38.9147,33.399
		c-9.1335-1.608-17.6401-5.5317-25.2944-10.6935c-5.5798-3.8271-12.2854-5.998-17.1897-10.7417
		c-1.1738-2.3317-0.5308-5.0331-0.5468-7.5096c2.1387-26.5648-1.592-53.3065,2.01-79.807
		c-7.204-1.3025-14.1669-3.6342-20.7115-6.8503c-8.4261-4.0844-17.8171-5.5478-26.3558-9.2462
		c-2.798-0.9809-2.428-4.3257-3.2319-6.609c9.5034-5.0975,18.9266-10.4201,27.0311-17.6241
		c-15.3729-2.1387-30.9226-1.4633-46.3438-2.7015c-23.5256-2.396-47.212-0.0482-70.7699-1.7206
		c13.1216-16.4824,27.3689-32.0161,42.613-46.5528c-6.2069,2.4281-12.0603,5.7246-18.5245,7.4613
		c-9.7286,2.5085-18.5247,7.5417-27.8835,11.0472c-17.2543,6.5126-33.6885,15.8713-52.02,18.9749
		c-12.5427-0.9809-25.5356-4.1166-35.0714-12.8c-19.8914-15.3729-26.7578-41.8091-27.1115-65.8814
		c-0.2573-22.7699,3.9718-47.0995,19.2643-64.8683c3.2161,8.7316,3.1356,19.0553,9.1497,26.5487
		c7.6704,6.191,17.6563,10.3397,27.6744,9.5357c6.3196-0.4503,12.6392-1.3025,18.8784-2.5246
		c12.5748-2.589,23.8151-9.0533,35.3929-14.2955c11.1759-7.7186,22.7698-14.81,34.396-21.8372
		c16.0963-9.6804,33.9457-15.7749,51.3447-22.609C1852.2693,210.9749,1870.2633,206.1186,1888.7236,204.8322z"/>
	<path fill="#4D403B" stroke="#4D403B" stroke-width="0.2" d="M649.9055,233.5035c13.8774-2.5085,27.996-2.9749,42.0181-4.2452
		c15.389-1.3347,30.8262-0.1929,46.1669,1.1739c38.6573,4.2774,74.4201,21.5316,106.7417,42.3719
		c26.0342,17.9618,51.3447,37.1457,74.0663,59.192c10.9507,12.9769,18.7336,28.3015,25.809,43.6583
		c7.799,17.0613,9.7608,35.8754,13.2181,54.1106c2.5568,14.2955,3.811,28.7518,5.2905,43.1759
		c0.7397,7.0593-2.2512,13.7166-3.2161,20.599c-1.8815,12.4462-4.2774,24.9567-9.1659,36.6312
		c-15.2442,2.1547-29.9095,7.204-45.2663,8.7477c-23.8794,4.9849-48.3538,2.01-72.4261,0.3055
		c-18.2995-1.0613-36.5186-3.4091-54.4804-7.0272c6.1588-11.6744,12.3015-23.4452,16.7076-35.9236
		c4.6151-13.395,11.0633-26.2915,12.9929-40.4744c-6.5608,5.9176-11.9477,12.9126-17.8492,19.4412
		c-15.2764,16.3538-30.0864,33.399-48.1126,46.8583c-9.6,7.1075-19.1517,14.5688-30.0864,19.5377
		c-7.3488-6.4-13.3789-14.2794-21.1939-20.1487c-15.1638-9.6483-32.6915-17.0452-50.9588-16.3216
		c-17.3669,3.2322-35.0714,13.1216-42.3879,29.9417c-8.4583,15.1317-8.7799,33.1417-7.2523,49.9618
		c3.6181,18.9106,15.0513,34.7498,24.4261,51.1357c-27.0311,9.0211-51.0713,24.5387-76.3336,37.3708
		c-12.3176,5.9175-23.6221,13.6522-35.6985,19.9879c-3.7307-12.6714-13.7166-21.8372-19.9879-33.1417
		c-13.3467-23.188-28.0281-45.6201-39.4935-69.8211c-5.8211-13.5558-8.7638-28.1246-14.6331-41.6483
		c-16.2412-46.2472-11.4653-98.1548,8.0402-142.6653c4.8402-10.9186,9.4874-22.0462,16.2894-31.9518
		c9.5678-15.9196,19.6181-31.5658,30.6171-46.5367c6.4322-9.005,14.6975-16.4663,22.6573-24.0724
		c23.204-19.6663,47.7749-38.1266,75.0794-51.7146c9.9859-3.9879,19.4894-9.2141,29.9256-11.996
		C623.9357,236.2372,637.0894,235.803,649.9055,233.5035z"/>
	<path fill="#FBDCCE" stroke="#FBDCCE" stroke-width="0.2" d="M1780.8884,355.8754c6.4644-1.7367,12.3175-5.0332,18.5247-7.4613
		c-15.2443,14.5367-29.4916,30.0703-42.613,46.5528c23.5577,1.6724,47.2441-0.6754,70.7698,1.7206
		c15.4211,1.2382,30.9709,0.5628,46.3438,2.7015c-8.1045,7.204-17.5277,12.5266-27.0311,17.6241
		c0.8041,2.2834,0.4342,5.6281,3.2319,6.609c8.5387,3.6985,17.9297,5.1618,26.3558,9.2462
		c6.5448,3.2161,13.5076,5.5478,20.7115,6.8503c-3.6019,26.5005,0.1287,53.2422-2.01,79.8071
		c0.0161,2.4764-0.6272,5.1779,0.5468,7.5095c4.9043,4.7438,11.6101,6.9146,17.1898,10.7417
		c7.6543,5.1618,16.1609,9.0854,25.2944,10.6935c7.9598-15.4854,21.7085-28.9769,38.9147-33.399
		c18.2673-6.3518,39.0111-5.2905,56.3136,3.4734c16.3055,8.201,31.8068,22.1105,34.38,41.1015
		c2.605,19.1839-0.0322,39.3005-9.343,56.4261c-8.7637,19.6342-25.4551,33.7367-40.6832,48.2251
		c6.3839,7.4452,15.5497,11.5297,23.9757,16.1608c14.2312,6.8342,28.0767,14.4241,42.3076,21.2744
		c-4.0522,17.0613-1.415,34.8784,2.3799,51.7467c3.1357,11.1277,5.7407,23.0272,13.1377,32.2412
		c-9.7124,10.5969-23.2361,16.0161-35.7949,22.3357c-15.8875,8.2492-32.6593,14.5849-49.1096,21.5316
		c-14.8422,4.9528-28.7678,13.0734-44.623,14.392c-4.599-11.9477-11.8191-22.593-17.5438-33.9779
		c-7.0432-12.012-12.9607-25.005-22.6572-35.1678c-2.01-2.4764-5.3707-2.1066-8.1687-1.8975
		c-29.0414,3.4895-58.4684,1.5759-87.381-2.2512c-20.6312-2.8463-40.8602-8.5548-59.7388-17.399
		c-11.5135-5.4352-23.8473-9.6-34.1066-17.3508c-16.5466-13.2825-30.9707-29.8131-38.6572-49.8171
		c-5.1458-9.4392-2.396-20.2131-0.9969-30.199c1.3668-13.8935,2.3799-27.8191,3.8914-41.6965
		c1.0613-13.2985,3.3448-26.7578,1.0292-40.0563c-1.3025-8.6352-7.204-15.5337-9.7125-23.7507
		c-10.1788-35.1035-10.3075-72.0081-9.3427-108.2372c0.7719-19.5216,6.8501-38.3678,14.3115-56.2814
		c18.3318-3.1035,34.7659-12.4623,52.0201-18.9749C1762.3638,363.4171,1771.1598,358.3839,1780.8884,355.8754z"/>
	<path fill="#F8C5B0" stroke="#F8C5B0" stroke-width="0.2" d="M790.5126,475.2402c5.9015-6.5286,11.2884-13.5236,17.8492-19.4412
		c-1.9297,14.1829-8.3779,27.0794-12.9929,40.4744c-4.4061,12.4784-10.5488,24.2492-16.7076,35.9236
		c17.9618,3.6181,36.1809,5.9658,54.4804,7.0272c24.0723,1.7045,48.5468,4.6794,72.4261-0.3055
		c15.3568-1.5437,30.0221-6.593,45.2663-8.7477c-7.204,26.0181-22.4804,48.5467-34.4925,72.4261
		c-4.2935,8.9246-12.1729,15.807-15.003,25.4713c-2.605,8.2332-4.8884,16.595-6.9949,24.9729
		c-4.3257,20.6311-10.4362,40.9246-18.4282,60.4301c-4.5347,11.3045-12.6874,20.5186-18.9106,30.8583
		c-3.007,4.9367-6.4321,9.6644-10.8381,13.4593c-16.4663,13.8613-34.4282,26.6935-55.2362,33.0613
		c-18.2352,5.4191-36.9367,11.0311-56.1849,9.8251c-25.407-1.6241-50.605-6.4-75.1437-13.0734
		c-5.805-1.5116-11.5135-3.8271-17.5598-4.0522c-4.6473,2.1708-7.1719,6.9628-9.8251,11.0955
		c-8.2975,14.3438-15.5337,29.411-19.9236,45.4432c-9.8894-4.3417-19.4733-9.3427-28.6071-15.1156
		c-15.9035-10.1789-32.2412-19.8271-46.6331-32.1769c-11.5618-9.9698-25.1819-17.5276-35.795-28.5909
		c-3.1196-2.6533-1.9297-6.8824-1.2704-10.3236c5.3387-19.5538,7.0271-40.3618,2.9267-60.3176
		c12.0764-6.3357,23.3809-14.0704,35.6985-19.9879c25.2623-12.8322,49.3025-28.3498,76.3337-37.3708
		c-9.3749-16.3859-20.808-32.2252-24.4261-51.1357c-1.5276-16.8201-1.2061-34.8301,7.2523-49.9618
		c7.3166-16.8201,25.0211-26.7095,42.3879-29.9417c18.2673-0.7236,35.795,6.6734,50.9587,16.3216
		c7.8151,5.8693,13.8452,13.7487,21.194,20.1487c10.9347-4.9688,20.4865-12.4302,30.0864-19.5377
		C760.4261,508.6392,775.2361,491.594,790.5126,475.2402z"/>
	<path fill="#FFFFFF" stroke="#FFFFFF" stroke-width="0.2" d="M491.1276,754.7498c2.9106-0.6272,5.9015-0.6754,8.8603-0.8684
		c-0.6593,3.4413-1.8492,7.6703,1.2703,10.3237c10.6131,11.0633,24.2332,18.6211,35.795,28.5909
		c14.392,12.3497,30.7296,21.998,46.6332,32.1769c9.1336,5.7729,18.7176,10.7739,28.6071,15.1156
		c11.3688,5.6442,23.4452,9.6643,34.9588,15.0352c-5.9176,8.989-13.3789,16.8361-19.3126,25.7929
		c-10.3719-4.7758-21.9498-6.3679-31.9518-11.9799c-27.2241-15.8071-55.1075-30.8261-79.9678-50.2834
		c-14.6975-12.398-29.6362-25.8573-37.5477-43.787C482.6854,768.1769,485.4512,760.394,491.1276,754.7498z"/>
	<path fill="#F7A38F" stroke="#F7A38F" stroke-width="0.2" d="M400.6271,902.2393c23.3809-43.9799,53.6281-83.8593,77.8452-127.3729
		c7.9116,17.9296,22.8503,31.3889,37.5477,43.7869c24.8604,19.4573,52.7437,34.4764,79.9678,50.2834
		c10.002,5.6121,21.5799,7.204,31.9518,11.9799c-7.3809,13.1537-15.9678,25.5518-23.2684,38.7537
		c8.7477,10.7739,16.1447,22.7216,20.2614,36.0684c6.0784,19.5216,12.9447,38.9467,16.3698,59.1597
		c5.1779,40.2653,14.0221,79.9517,23.5739,119.3809c3.1357,10.5166,6.3518,21.0814,10.9829,31.0674
		c3.0553,6.7538,9.0372,11.5134,15.2603,15.2441c11.208,6.7699,22.609,13.2825,34.6211,18.5408
		c24.8763,10.42,49.0131,22.609,74.3397,31.9839c15.4211,6.0624,31.2442,10.999,47.1477,15.6141
		c12.2533,4.213,24.8282,7.3326,37.387,10.4523c0.9648,10.3075,3.5055,20.5347,2.5729,30.9548
		c-0.7879,21.8049-9.6965,42.0823-17.9457,61.9255c-6.1749,13.781-12.0121,28.366-23.397,38.786
		c-29.2502-3.5055-58.0824-9.7125-87.0271-14.9869c-29.0412-6.3036-58.195-12.4624-86.4161-21.8855
		c-11.6583-3.7467-23.799-5.6281-35.8111-7.8794c1.1578,26.0503,7.9277,51.6825,18.2352,75.5779
		c8.5548,19.6343,18.1066,38.8663,29.3629,57.1016c-28.8322,41.1498-58.1468,81.9618-86.8181,123.2241H394.3557
		c-18.0422-40.3458-30.6653-82.8463-42.0824-125.4594c-9.6-36.0522-19.9719-72.0724-24.4904-109.218
		c-2.0261-18.8945-6.2553-37.4995-7.3005-56.5066c-1.6241-25.3267-4.7437-50.7175-2.9266-76.1246
		c-0.0322-20.0684-0.9005-40.3458,2.6533-60.2051c3.8915-21.5959,6.207-43.4653,10.6774-64.9648
		c4.6312-27.4653,12.0442-54.3839,20.2935-80.9648c11.6422-32.3215,24.1367-64.3376,35.2965-96.8361
		C389.7246,919.8633,395.4814,911.1799,400.6271,902.2393z"/>
	<path fill="#FFFFFF" stroke="#FFFFFF" stroke-width="0.2" d="M2063.791,808.0563c12.5586-6.3196,26.0823-11.7386,35.7949-22.3357
		c3.5859,4.1005,6.5447,8.7639,8.1045,14.0222c4.4543,13.7166,10.8704,26.6613,17.1738,39.606
		c-9.0854,4.0042-18.4602,7.397-27.2241,12.0603c-13.218,7.799-27.1919,14.2955-39.9597,22.8342
		c-24.1367,17.7045-49.0453,35.5216-66.7338,60.1246c-10.6129,13.6201-18.6371,29.0251-26.2592,44.4623
		c-4.8241,12.3015-10.9187,24.0563-16.1125,36.1809c0.016-5.5798-0.9006-11.0955-2.0262-16.5307
		c-0.6754-13.3306-0.0643-26.6934,0.1447-40.0242c0.2574-3.634,0.5468-7.2684,0.8524-10.8865
		c4.9849-3.0713,8.7317-7.5899,12.0442-12.3336c5.2583-7.4934,11.9797-13.7648,18.8301-19.7468
		c2.1549-1.9136,4.9851-2.7015,7.6062-3.811c-4.1489-17.0131-10.5327-33.4473-13.6683-50.7176
		c-1.1257-5.7568-3.2483-11.2402-5.4193-16.6592c0.772-0.0804,2.3318-0.2413,3.1198-0.3217
		c15.8552-1.3184,29.7809-9.4392,44.623-14.392C2031.1316,822.6412,2047.9036,816.3055,2063.791,808.0563z"/>
	<path fill="#F23F42" stroke="#F23F42" stroke-width="0.2" d="M1949.7004,836.599c7.0432-3.1357,11.4653,5.2261,17.2382,7.7025
		c2.171,5.4191,4.2936,10.9025,5.4193,16.6592c3.1356,17.2706,9.5194,33.7046,13.6683,50.7176
		c-2.6211,1.1095-5.4513,1.8975-7.6062,3.811c-6.8503,5.9819-13.5718,12.2532-18.8301,19.7468
		c-3.3125,4.7437-7.0593,9.2623-12.0442,12.3336c-0.3057,3.6181-0.595,7.2523-0.8524,10.8865
		c-1.9778,3.9558-2.9104,8.3297-2.6853,12.7679c0.2572,9.1176-1.2382,18.6372,2.5406,27.2563
		c1.1256,5.4352,2.0422,10.9507,2.0262,16.5307c-9.6161,26.1465-17.6403,53.0492-20.4222,80.8683
		c-13.8291-8.989-26.9506-18.991-40.5063-28.3658c0.402-7.0754,2.4281-13.8774,3.5698-20.8241
		c4.1487-37.1938,8.7155-75.7709,27.4655-108.9126c1.64-3.7949,6.1909-3.3126,9.5839-4.1166
		c0.7557-7.8472,0.9971-15.7106,1.3025-23.5738c0.7236-17.7689,6.7538-34.6533,11.1759-51.7145
		C1943.1237,850.9266,1944.8441,842.8864,1949.7004,836.599z"/>
	<path fill="#315385" stroke="#315385" stroke-width="0.2" d="M2097.6401,851.409c8.7639-4.6633,18.1387-8.0561,27.2241-12.0603
		c13.1699,24.394,25.6321,49.2221,37.1296,74.4523c11.0955,31.3085,23.4773,62.1829,33.3508,93.9255
		c9.6965,31.3569,19.6501,62.6494,28.0122,94.3759c3.3928,13.588,5.3706,27.4814,8.7637,41.0533
		c5.8533,22.0784,4.2129,45.1055,4.6794,67.6984c1.1255,38.593-2.4121,77.2986-10.4844,115.0553
		c-8.5547,47.0513-18.8462,93.9417-34.1387,139.3046c-11.0313,34.4603-26.4524,67.2483-38.9629,101.1617
		c-4.4543,11.385-8.7478,22.9304-14.762,33.624h-182.2874c-6.207-11.3849-14.3918-21.4833-21.7246-32.1285
		c-37.6764-53.5477-75.6904-106.8704-113.2382-160.4985c12.9286-14.2472,23.606-30.392,32.6754-47.3246
		c7.5577-12.5427,11.3849-26.7739,15.6461-40.6512c4.7277-13.7649,7.4774-28.0764,10.8865-42.179
		c2.9749-11.9316,3.3608-24.3457,6.9468-36.1166c-3.2644-3.4573-6.5769-6.8824-10.0664-10.0664
		c-10.9829-10.2109-23.8633-17.9778-36.0844-26.5487c-17.7368-12.3981-35.3286-25.0211-53.6925-36.4703
		c1.9778-2.203,4.213-4.3578,5.0974-7.2684c12.3981-36.4221,23.3167-73.6643,41.8734-107.5779
		c2.4924-4.6633,5.9658-8.6835,9.1979-12.8322c16.3055,5.9337,29.7649,17.5277,43.9639,27.1759
		c13.556,9.375,26.6775,19.377,40.5063,28.3658c2.7821-27.819,10.8062-54.7216,20.4222-80.8682
		c5.194-12.1246,11.2885-23.8794,16.1125-36.1809c7.6222-15.4372,15.6462-30.8422,26.2593-44.4623
		c17.6885-24.603,42.5969-42.4202,66.7336-60.1247C2070.4482,865.7045,2084.4221,859.2081,2097.6401,851.409z"/>
	<path fill="#F3C1AD" stroke="#F3C1AD" stroke-width="0.2" d="M1508.7598,860.5588c14.1025-7.9437,30.2312-11.1437,46.1669-12.8802
		c24.3779-1.8171,48.3699,7.7505,67.4413,22.4804c5.8854,4.5347,8.5869,11.7065,12.0281,18.0261
		c-6.6735,5.6603-14.5688,12.3176-14.3759,21.9174c0.1448,11.2563,4.5347,23.7027,14.8101,29.5399
		c9.6965,6.3839,21.1458,9.2946,32.6271,10.179c0,6.1105-0.9647,13.1376-6.7699,16.5307
		c-6.5769,0.3216-12.5587-3.0231-18.6693-4.9206c-21.4191-7.6382-44.9125-5.6282-66.5889-0.1608
		c-18.4603,4.9045-35.8431,14.199-49.8651,27.208c-11.1116,10.2915-13.6201,26.3397-14.6332,40.7156
		c-1.1899,11.6422,6.207,21.4995,12.7356,30.3276c-1.8011,2.1708-2.4924,6.3999-6.0142,6.1427
		c-14.392-0.1125-29.009-3.4091-41.4392-10.8384c-13.4755-7.397-26.4363-18.991-29.5076-34.7176
		c-4.1005-15.4051-1.5437-32.4825,6.3196-46.2473c12.4464-15.8071,26.7578-30.9387,44.5588-40.6995
		c15.3086-8.3297,33.0613-9.7286,50.0905-11.3206c-0.4181-3.8271-0.6914-7.6704-1.4473-11.4492
		c-10.0663-1.3508-20.1327,1.399-30.215,0.5468c-8.2332-0.7075-17.6401-0.9327-23.8955-7.0914
		c-7.7025-7.4613-7.5898-19.9236-3.0392-29.009C1493.4995,867.7468,1501.7327,864.4824,1508.7598,860.5588z"/>
	<path fill="#FBDCCE" stroke="#FBDCCE" stroke-width="0.2" d="M1634.396,888.185c12.1406-8.2654,27.8994-9.4714,41.9216-6.1749
		c12.4945,2.9909,25.2944,5.5477,36.8081,11.4814c8.812,4.5024,17.7688,8.812,26.3236,13.8291
		c5.9336,3.5055,12.3657,6.6734,16.6592,12.2854c8.1045,10.4684,17.0935,20.792,21.0171,33.7206
		c6.8986,22.2553,8.1689,45.7969,7.767,68.9528c-2.6212,8.1689-7.5095,15.2925-11.192,22.9628
		c-10.9508,22.191-21.0493,44.8162-30.3115,67.7629c-1.0131,2.1387-2.1388,4.3094-3.8594,5.9818
		c-9.1819-0.3217-18.0905-3.0231-27.2402-3.6824c-12.9126-1.0292-25.8573-1.5437-38.7698-2.605
		c-28.3658-2.187-56.7958-7.0111-83.2965-17.6241c-16.5466-4.8884-31.5819-13.4111-47.5176-19.8273
		c-7.6221-3.4573-13.3628-9.793-19.0392-15.7267c-6.5288-8.8281-13.9257-18.6853-12.7357-30.3275
		c1.0132-14.3759,3.5216-30.4241,14.6332-40.7156c14.0221-13.0091,31.405-22.3035,49.8651-27.208
		c21.6764-5.4674,45.1699-7.4774,66.589,0.1608c6.1105,1.8975,12.0924,5.2422,18.6693,4.9206
		c5.8049-3.3929,6.7699-10.42,6.7699-16.5307c-11.4814-0.8844-22.9307-3.7949-32.6272-10.1789
		c-10.2754-5.8372-14.6653-18.2836-14.8101-29.5399C1619.8271,900.5025,1627.7225,893.8452,1634.396,888.185z"/>
	<path fill="#A38F8F" stroke="#A38F8F" stroke-width="0.2" d="M923.3045,923.3528c17.8814-4.0522,36.1487-6.3035,54.4643-7.0593
		c32.1447-1.0452,64.6754-0.4503,96.1448,6.8985c10.0502,2.4924,20.0845,5.8372,28.816,11.5618
		c5.5798,3.8753,11.1598,9.809,10.0503,17.206c-1.6403,16.8522-3.3768,33.7046-5.6282,50.5085
		c-2.6533,34.2995-10.999,67.811-19.7307,100.9849c-2.3478,8.3939-2.6532,17.5437-6.8019,25.3265
		c-7.1559,3.9559-15.4532,5.0011-23.2684,7.0754c-19.7788,3.8915-39.7507,7.3649-59.9477,7.7668
		c-16.7076-1.415-33.4794-3.6019-49.3669-9.1979c-8.0241-3.0229-16.8683-3.6985-24.5065-7.6221
		c-4.985-5.3549-6.8663-12.7357-9.8412-19.2643c-10.8704-28.1891-16.2412-58.0664-21.6603-87.6864
		c-4.1166-21.3224-8.2975-42.822-8.217-64.6432c0.2411-4.9045,0.1768-10.613,4.1648-14.1508
		C897.6563,931.795,910.3437,926.2473,923.3045,923.3528 M952.2975,920.4744c-17.8654,1.1577-35.3608,6.3357-51.3287,14.3116
		c-4.7438,2.0743-6.4322,7.0754-6.9146,11.8351c7.011,5.0493,14.8261,8.9085,23.204,11.0794
		c34.8463,9.5518,71.3488,9.5035,107.192,8.5065c20.7759-1.5598,41.7609-3.6824,61.6362-10.2593
		c6.6733-2.4442,13.8934-5.1458,18.3317-10.999c1.3828-2.9588-1.1417-5.4995-3.3929-7.011
		c-14.0864-9.3429-30.9869-12.6392-47.3407-15.566c-19.2965-2.9265-38.8342-2.5085-58.2593-3.6503
		C981.0171,918.3196,966.6412,919.5417,952.2975,920.4744z"/>
	<path fill="#5C5151" stroke="#5C5151" stroke-width="0.2" d="M952.2975,920.4744c14.3437-0.9327,28.7196-2.1548,43.1276-1.7528
		c19.4251,1.1417,38.9628,0.7236,58.2593,3.6503c16.3538,2.9266,33.2543,6.2231,47.3407,15.566
		c2.2512,1.5114,4.7758,4.0522,3.3929,7.011c-4.4382,5.8533-11.6583,8.5548-18.3317,10.9991
		c-19.8754,6.5769-40.8604,8.6994-61.6362,10.2593c-35.8433,0.9969-72.3458,1.0453-107.192-8.5065
		c-8.3779-2.1708-16.1929-6.0302-23.204-11.0795c0.4824-4.7598,2.1708-9.7608,6.9146-11.8351
		C916.9366,926.8101,934.4321,921.6322,952.2975,920.4744z"/>
	<path fill="#F02527" stroke="#F02527" stroke-width="0.2" d="M1944.0081,971.2241c-0.2251-4.4382,0.7075-8.8121,2.6853-12.7679
		c-0.209,13.3306-0.8201,26.6934-0.1447,40.0242C1942.7699,989.8613,1944.2653,980.3417,1944.0081,971.2241z"/>
	<path fill="#F8C5B0" stroke="#F8C5B0" stroke-width="0.2" d="M867.8914,1038.3436c7.7186-6.5769,16.4503-11.8671,24.1367-18.4924
		c5.4191,29.6201,10.7899,59.4976,21.6603,87.6865c2.9749,6.5286,4.8563,13.9095,9.8412,19.2643
		c7.6382,3.9236,16.4824,4.599,24.5065,7.6221c15.8875,5.5959,32.6593,7.783,49.3669,9.198
		c-7.8955,2.5085-15.9518,4.8563-23.1397,9.0693c-5.5638,3.2-11.1598,6.4321-17.2221,8.6351
		c-15.9196,5.6604-31.4211,12.6392-47.9839,16.4021c-18.7819-5.1779-31.2924-21.8855-39.9758-38.3197
		c-8.603-18.2191-14.3759-37.5798-20.7759-56.6191c-2.7337-8.1366-1.9136-16.8201-1.4955-25.214
		C855.4935,1053.1859,860.6392,1044.5024,867.8914,1038.3436z"/>
	<path fill="#FFFFFF" stroke="#FFFFFF" stroke-width="0.2" d="M1784.8925,1022.2794c5.3386-0.804,10.8542-1.1256,16.1608,0.2734
		c15.0833,3.5216,28.8322,10.9829,42.6289,17.7849c-3.2319,4.1488-6.7054,8.1688-9.1979,12.8322
		c-18.5568,33.9136-29.4755,71.1558-41.8734,107.5779c-0.8844,2.9105-3.1195,5.0654-5.0974,7.2684
		c-8.3135-5.7889-16.788-11.4493-25.8412-16.0001c-3.7468-1.9296-7.7507,0.3055-11.208,1.7689
		c-5.8694,2.7657-12.3015,3.9397-18.3799,6.0784c-7.606,2.3156-14.8744,5.8533-22.8181,6.9146
		c-12.4945-17.608-26.3558-34.5085-35.7467-54.0784c12.9126,1.0613,25.8573,1.5758,38.7698,2.605
		c9.1498,0.6593,18.0583,3.3608,27.2402,3.6824c1.7207-1.6724,2.8463-3.8433,3.8594-5.9818
		c9.2623-22.9468,19.3607-45.5719,30.3115-67.7628C1777.3829,1037.5719,1782.2714,1030.4482,1784.8925,1022.2794z"/>
	<path fill="#FFFFFF" stroke="#FFFFFF" stroke-width="0.2" d="M828.0281,1064.5387c5.9175-3.1517,12.3337-5.1458,18.7819-6.9628
		c-0.4181,8.3939-1.2382,17.0773,1.4955,25.214c6.4,19.0393,12.1729,38.4,20.7759,56.6191
		c8.6834,16.4341,21.194,33.1417,39.9759,38.3196c-7.3647,2.6854-14.3276,6.2875-21.3226,9.8091
		c-12.9126-3.9076-19.8915-16.2894-27.8674-26.1306c-12.6713-20.9207-24.2974-42.7257-31.8713-66.0745
		C825.0532,1085.2985,826.211,1074.6693,828.0281,1064.5387z"/>
	<path fill="#D28A79" stroke="#D28A79" stroke-width="0.2" d="M733.2663,1103.0673c31.8714-12.0762,64.0483-23.6218,94.7618-38.5287
		c-1.8171,10.1307-2.9749,20.7598-0.0322,30.7941c7.5739,23.3488,19.2,45.1538,31.8713,66.0745
		c7.9759,9.8412,14.9548,22.223,27.8674,26.1306c-16.0161,7.1719-31.4372,15.6141-47.6141,22.4803
		c-13.9578,5.8533-26.195,14.9869-40.0402,21.0975c-25.3266-9.375-49.4633-21.5638-74.3397-31.984
		c-12.0121-5.2583-23.4131-11.7709-34.6212-18.5408c-6.2231-3.7306-12.205-8.4905-15.2603-15.2441
		c-4.6312-9.986-7.8472-20.5508-10.9829-31.0674C686.3276,1121.1899,710.0301,1112.4102,733.2663,1103.0673z"/>
	<path fill="#213858" stroke="#213858" stroke-width="0.2" d="M1750.4644,1153.7849c3.4573-1.4633,7.4613-3.6985,11.208-1.7688
		c9.0532,4.5508,17.5276,10.2111,25.8412,16c18.3638,11.4493,35.9557,24.0724,53.6925,36.4703
		c12.2211,8.5709,25.1014,16.3376,36.0844,26.5488c-15.4854,9.6965-31.5015,20.9688-50.4442,21.5637
		c-11.7065,0.3055-24.217,0.0483-34.8623-5.2744c-31.5336-22.3518-58.9507-50.1387-82.7175-80.5468
		c7.9437-1.0613,15.212-4.599,22.8181-6.9146C1738.1627,1157.7246,1744.595,1156.5508,1750.4644,1153.7849z"/>
	<path fill="#8DEDFA" stroke="#8DEDFA" stroke-width="0.2" d="M875.6904,1213.8291c12.993-2.2191,26.1789-0.9808,39.2844-1.2382
		c85.7568,0,171.5297,0,257.2864,0c26.983,0.1448,53.9659-0.4503,80.9327,0.6592c-6.207,0.5789-12.4141,1.3347-18.6372,1.6403
		c-110.8101-0.3538-221.6362-0.0483-332.4462-0.1448C893.2985,1214.7136,884.4382,1215.1799,875.6904,1213.8291z"/>
	<path fill="#302A25" stroke="#302A25" stroke-width="0.2" d="M867.795,1216.7236c1.5598-2.8623,5.1296-2.5085,7.8954-2.8944
		c8.7477,1.3508,17.6081,0.8844,26.4201,0.9166c110.8101,0.0964,221.6362-0.2091,332.4462,0.1448
		c44.623,1.0292,89.2623,0.2733,133.8854,0.4984c105.5519-0.0322,211.1036-0.0161,316.6553,0.3217
		c9.1337,11.417,17.1417,23.6703,25.6483,35.5698c36.9207,51.9558,73.4392,104.217,110.4563,156.0925
		c37.5477,53.6281,75.5618,106.9506,113.2382,160.4984c7.3328,10.6453,15.5176,20.7438,21.7246,32.1287H597.3708
		c28.6714-41.2623,57.986-82.0743,86.8181-123.2241c18.9427-26.5969,37.6442-53.3547,56.5869-79.9518
		c5.805-7.8151,10.3719-16.7397,18.0422-22.9629c28.9447,5.2744,57.7769,11.4814,87.0271,14.9869
		c9.6483,0.6111,19.0875,3.2,28.7357,3.6824c3.9397,0.5789,4.9206-4.0844,6.6733-6.6251
		c19.6181,8.587,40.7316,12.5588,61.5075,17.2543c7.2523,1.6884,14.6815,2.3799,22.0945,3.0553
		c-12.1889,16.5466-21.2744,35.0713-31.9035,52.599c-10.9347,19.6503-22.9467,38.7056-33.399,58.6132
		c12.1729,0.6753,24.3297-0.7076,36.5025-0.3699c-1.0131,8.41-1.9136,16.8362-2.4924,25.3105
		c2.6855-0.2572,5.3708-0.4824,8.0563-0.7719c15.9196-0.0483,31.8392-0.804,47.7588-1.1577
		c22.1749-0.193,44.3497-1.0613,66.5247-1.9458c15.8713-0.2412,31.7588-0.8523,47.6462-1.2543
		c22.3999,0.1287,44.7678-1.801,67.184-1.5438c5.2583-0.0321,10.4362,0.9971,15.6301,1.8494
		c76.0442,11.0632,151.9919,22.7698,228.1005,33.3829c0.8362-2.8624,1.6884-5.7086,2.5889-8.5226
		c7.5579,2.203,14.9708,4.8723,22.3678,7.5739c4.8563-13.7167,8.1688-27.98,13.604-41.4713
		c2.6051-2.4121,7.204-0.418,10.5809-0.9969c-1.8492-5.4191-3.8752-10.79-5.9175-16.1127c3.425-0.0803,6.8984-0.0482,10.3557-0.1769
		l0.7557-1.2219c-2.2673-9.3429-6.7216-18.2672-6.9789-27.9958c3.9397-15.8232,5.6764-32.0643,8.8602-48.0322
		c6.5287-38.5126,13.3147-76.9607,19.7789-115.4733c-5.1619-2.9427-10.3236-5.9176-15.3889-9.005
		c0.595-3.4413,0.9326-6.9146,1.3346-10.3558c-26.0663-8.6674-52.4381-16.402-78.3597-25.4874
		c-4.213-5.5959-4.9689-12.9126-7.1235-19.4091c-53.4031,0.0804-106.79,0-160.193,0.0483
		c-11.8191-2.798-23.9598-1.3025-35.9558-1.5598c-34.2994-0.0803-68.615,0.0804-102.9146-0.0803
		c-8.2814-0.3055-16.5789,0.1608-24.7638,1.4633c-8.5869-0.5145-17.1256-1.5597-25.6965-2.203
		c1.0453-0.4663,3.1517-1.3829,4.197-1.8331c-14.585-1.0292-29.202-0.386-43.803-0.5308
		c-13.5236,0.193-27.0633-0.4984-40.5709,0.5308c0.6915,0.4342,2.0583,1.3025,2.7498,1.7367
		c-18.6854,2.8462-36.8724,8.0724-55.397,11.6423c-8.0884-1.7206-15.8713-4.5669-23.9598-6.2714
		c-12.5588-3.1196-25.1337-6.2393-37.3869-10.4523C854.014,1236.6794,860.8161,1226.6292,867.795,1216.7236z"/>
	<path fill="#131310" stroke="#131310" stroke-width="0.2" d="M961.2221,1250.0745c13.5075-1.0292,27.0472-0.3378,40.5709-0.5308
		c14.601,0.1448,29.2181-0.4984,43.803,0.5308c-1.0452,0.4502-3.1517,1.3667-4.1969,1.8331
		c-8.9086-0.1931-17.8171-0.1125-26.7256-0.1125c-16.9005,0.2733-33.8171-1.3668-50.7015,0.0159
		C963.2804,1251.377,961.9136,1250.5085,961.2221,1250.0745z"/>
	<path fill="#F8C5B0" stroke="#F8C5B0" stroke-width="0.2" d="M963.9719,1251.811c16.8844-1.3829,33.801,0.2572,50.7015-0.0159
		c8.9086,0,17.817-0.0804,26.7256,0.1125c8.5709,0.6432,17.1096,1.6884,25.6965,2.203c0.8201,0.0803,2.4282,0.2733,3.2483,0.3698
		c24.6995,5.8534,49.9135,10.3236,73.407,20.3418c22.7056,9.7286,44.0443,22.3195,64.9327,35.4412
		c12.5426,7.2684,24.635,19.8271,23.3488,35.4412c-3.8271,2.8624-7.606,5.7729-11.7386,8.1689
		c-17.1578,4.1005-34.2031-2.4604-49.592-9.5035l-1.3186-0.4987c-11.5135-4.8724-23.5579-8.217-35.3126-12.3981
		c-1.6563-0.1608-3.3125-0.2251-4.9366-0.2733c0.1125-0.6593,0.3376-1.9618,0.4663-2.6211
		c-4.8724-0.9327-9.7286-1.9136-14.5688-2.9266c-1.8815-0.4181-3.7468-0.8041-5.5959-1.2061
		c-2.6372-0.595-5.2583-1.1738-7.8634-1.7367c-10.2432,23.7346-23.9758,46.9226-45.2662,62.3759
		c-7.8634,6.0784-16.4664,11.192-25.6322,15.0511c-21.0654,7.2845-43.7709,9.0695-65.8171,6.0785
		c-7.4131-0.6753-14.8422-1.3668-22.0945-3.0553c-20.7759-4.6954-41.8894-8.6674-61.5075-17.2543
		c6.8985-15.4855,12.4462-31.5176,18.0905-47.4855c7.7025-24.1045,11.0794-49.7045,9.2301-74.9668
		C927.0995,1259.8834,945.2864,1254.6572,963.9719,1251.811z"/>
	<path fill="#140E09" stroke="#140E09" stroke-width="0.2" d="M1067.0955,1254.1106c8.1849-1.3025,16.4824-1.7688,24.7638-1.4633
		c34.2996,0.1608,68.6151,0,102.9146,0.0803c11.9961,0.2573,24.1367-1.2382,35.9558,1.5598
		c-53.4513,0.595-106.9347,0.193-160.3859,0.193C1069.5236,1254.3839,1067.9155,1254.191,1067.0955,1254.1106z"/>
	<path fill="#FFFFFF" stroke="#FFFFFF" stroke-width="0.2" d="M1070.3438,1254.4805c53.4512,0,106.9346,0.402,160.3859-0.193
		c53.4031-0.0483,106.79,0.0322,160.193-0.0483c2.1548,6.4965,2.9105,13.8131,7.1235,19.4091
		c1.2704,9.2462,3.9879,18.2031,7.0111,26.999c7.5577,25.9698,16.0161,51.6661,23.5898,77.6362
		c5.1458,16.402,9.7286,32.9808,15.8232,49.0613c1.6722,4.6312,3.2161,9.3105,4.438,14.0864
		c2.9589,13.8936,6.7054,27.7388,12.9126,40.5708c0.2572,9.7286,4.7115,18.6533,6.9789,27.996
		c-37.1296,2.6854-74.3877,0.595-111.5497,2.6051c-49.3186,0.2412-98.6372,0.6432-147.9556,1.2543
		c-46.0864,1.5276-92.2372,0-138.3076,1.9779c-44.9769,0.209-89.9537,0.4984-134.9307,1.222
		c-12.1729-0.3376-24.3297,1.0453-36.5025,0.3699c10.4523-19.9076,22.4643-38.9628,33.399-58.6132
		c10.6291-17.5276,19.7145-36.0522,31.9035-52.599c22.0462,2.991,44.7517,1.2061,65.8171-6.0785
		c-1.7689,4.6473-3.7307,9.2141-6.1427,13.5719c-9.793,17.7367-18.7659,35.9076-28.3177,53.7729
		c-1.9779,4.0359-4.2773,8.2974-3.9075,12.9607c1.9457,3.2644,6.2392,2.1224,9.4391,2.5085
		c24.7156-0.4663,49.4634-0.4181,74.1951-1.3667c25.6482-0.9005,51.3448-0.1608,76.9929-1.5438
		c10.002-0.5789,20.1648,0.6914,30.0543-1.3025c3.0874-26.9829,1.3025-54.2875,2.3317-81.3992
		c-0.4503-3.5698,0.9647-8.4261-2.3317-10.8865c-5.1136-1.0453-10.3719-0.6914-15.5498-0.6914
		c-26.2754,0.4663-52.5347-0.3699-78.7939-0.2091c-10.7739,0.0643-21.5638,0.2251-32.3376-0.4663
		c21.2904-15.4532,35.0232-38.6412,45.2664-62.3759c2.605,0.5629,5.2262,1.1417,7.8634,1.7367
		c-1.5116,14.2312-6.8181,27.7065-8.2493,41.9539c1.1577-0.0322,3.4733-0.0964,4.6311-0.1287
		c3.1196-13.5397,6.6251-26.9669,9.2141-40.6191c4.8402,1.0131,9.6965,1.994,14.5687,2.9266
		c-0.1287,0.6593-0.3536,1.9618-0.4662,2.6211c-1.9779,11.385-3.184,22.8986-4.0363,34.4121
		c1.2061-0.1125,3.618-0.3376,4.808-0.4502c1.0613-11.2725,2.3478-22.5126,4.1649-33.6885
		c11.7548,4.1808,23.799,7.5255,35.3126,12.3979c-0.7719,0.1932-2.3156,0.6111-3.0874,0.8041
		c0.3217,8.5708,2.0261,16.9969,3.0553,25.5034c1.2222,0.0966,3.6664,0.2894,4.8884,0.386
		c-0.8202-8.7959-2.0905-17.5116-3.5377-26.1949c15.3888,7.043,32.4341,13.604,49.5919,9.5034
		c6.9468,5.0654,13.6844,10.5648,21.5479,14.1991c23.1558,11.0472,49.9136,12.7517,74.9346,8.3618
		c19.0875-3.827,38.2714-12.189,50.7336-27.6904c3.9398-4.6954,6.7056-10.1951,9.198-15.7427
		c5.6764,3.4733,11.6904,6.4,18.1227,8.2654c0.1287-1.1738,0.402-3.5538,0.5468-4.7438
		c-5.9015-3.1357-11.7386-6.3839-17.5759-9.6323c2.4604-21.2904-13.0895-39.5739-30.9386-48.8362
		c-22.3518-12.5748-49.0131-15.0031-74.0824-11.7709c-17.4795,2.8784-35.3447,8.7638-48.4503,21.1779
		c-11.4492-3.6342-22.5448-8.3618-34.2351-11.192c-0.0483,1.2865-0.1287,3.8754-0.1608,5.1779
		c9.6643,3.3285,19.2643,6.8663,28.9608,10.1306c-4.4382,5.5959-8.5709,11.6261-10.2111,18.6854
		c-20.8885-13.1216-42.2272-25.7125-64.9326-35.4412C1120.2572,1264.804,1095.0432,1260.3337,1070.3438,1254.4805
		 M1173.9497,1262.6171c-1.6241,6.4482,0.4824,13.1056,1.2864,19.5537c1.1738-0.2251,3.5377-0.6914,4.7277-0.9164
		c-0.9166-6.2233-0.9166-12.6874-3.0713-18.6372C1176.1527,1262.6171,1174.6895,1262.6171,1173.9497,1262.6171 M1399.3165,1346.4121
		c-1.7206,6.1427-1.2543,12.623-1.6563,18.9427c1.1417,0.0642,3.4091,0.1768,4.5347,0.2412
		c0.4824-6.8342,1.0613-13.6683,0.6753-20.5187C1401.9698,1345.415,1400.201,1346.0745,1399.3165,1346.4121 M1372.9608,1383.3005
		c-1.3829,23.413,0.6271,46.9226,0.2251,70.3839c0.5468,4.0522-1.0292,9.2784,2.2996,12.4141
		c8.426,0.8844,16.595-2.3157,24.8442-3.5538c0.3859-3.4894,0.7396-6.995,0.5627-10.4684
		c-1.8813-20.4221-3.8915-40.8281-5.4513-61.2662c-0.4342-2.7338-0.4503-6.1749-3.1196-7.7347
		C1385.8894,1382.1427,1379.3768,1382.8663,1372.9608,1383.3005 M1338.1627,1389.0413
		c-0.1287,28.2854-1.0452,56.5708-1.2382,84.8402c2.9427,0.1929,5.9015,0.402,8.8763,0.6432
		c0.8363-15.5015,0.2734-31.0352,1.4152-46.5205c0.0964-13.0895-0.0804-26.2272,2.203-39.1719
		C1345.6563,1388.5105,1341.8934,1388.5911,1338.1627,1389.0413 M1239.9919,1389.3468c-2.4282,2.9266-2.1387,7.0592-2.6854,10.629
		c-1.6403,24.4744-4.5508,48.8523-5.7568,73.3588c3.184-0.0642,6.4-0.0964,9.6161-0.1287
		c2.1708-28.1248,4.6312-56.2009,7.1558-84.2933C1245.5236,1388.9769,1242.7417,1388.993,1239.9919,1389.3468 M1307.1919,1389.202
		c3.2002,25.6964,2.6052,51.6663,4.8884,77.4271c2.8302-0.0161,5.6442-0.0161,8.4905,0
		c0.8523-12.7839-0.4985-25.5679-1.0613-38.3357c-1.0934-12.9608-0.3055-26.0503-2.3478-38.9147
		C1313.8171,1389.2825,1310.5045,1389.2341,1307.1919,1389.202 M1278.0542,1394.1548c-2.0743,13.4111-0.9487,27.0311-2.3638,40.5065
		c-0.6272,14.6493-1.1095,29.3146-1.5116,43.9639c2.9427,0.1448,5.8855,0.3217,8.8281,0.4985
		c1.0453-12.2211,1.8654-24.4584,1.9618-36.7115c0.595-16.1288,1.9618-32.2091,1.8169-48.3538
		C1283.8594,1394.0743,1280.9487,1394.1066,1278.0542,1394.1548z"/>
	<path fill="#FFFFFF" stroke="#FFFFFF" stroke-width="0.2" d="M884.6151,1257.1819c8.0884,1.7046,15.8713,4.5508,23.9598,6.2715
		c1.8492,25.2623-1.5276,50.8623-9.2301,74.9668c-5.6443,15.9678-11.192,32-18.0905,47.4855
		c-1.7528,2.5406-2.7337,7.204-6.6734,6.6251c-9.6482-0.4824-19.0874-3.0713-28.7357-3.6824
		c11.3849-10.42,17.2221-25.005,23.397-38.786c8.2493-19.8433,17.1578-40.1206,17.9457-61.9255
		C888.1205,1277.7167,885.5799,1267.4894,884.6151,1257.1819z"/>
	<path fill="#959595" stroke="#959595" stroke-width="0.2" d="M1173.9497,1262.6171c0.7397,0,2.203,0,2.9427,0
		c2.1548,5.9498,2.1548,12.4141,3.0713,18.6372c-1.1899,0.2252-3.5538,0.6915-4.7277,0.9165
		C1174.4321,1275.7227,1172.3256,1269.0653,1173.9497,1262.6171z"/>
	<path fill="#2DA1E9" stroke="#2DA1E9" stroke-width="0.2" d="M1272.7799,1266.2833c25.0693-3.2319,51.7306-0.804,74.0824,11.7709
		c-6.8181,5.5317-14.0221,10.5488-21.5316,15.0835c-9.8573,5.8694-18.9268,12.9608-29.0251,18.4121
		c23.6864,12.4623,47.5176,24.6833,71.2041,37.194c-12.4624,15.5015-31.6462,23.8633-50.7336,27.6903
		c-25.0211,4.39-51.7789,2.6854-74.9347-8.3618c-7.8633-3.6342-14.6011-9.1337-21.5477-14.199
		c4.1327-2.396,7.9115-5.3065,11.7386-8.1688c1.2864-15.6141-10.806-28.173-23.3488-35.4413
		c1.6403-7.0592,5.7728-13.0894,10.2109-18.6853c14.3276,4.6633,28.2051,10.7416,42.8704,14.3436
		c0.0483-1.1899,0.1608-3.5698,0.2091-4.7438c-12.5266-4.615-25.1819-8.9084-37.6443-13.7166
		C1237.4352,1275.0472,1255.3005,1269.1619,1272.7799,1266.2833z"/>
	<path fill="#C3C3C3" stroke="#C3C3C3" stroke-width="0.2" d="M1398.0461,1273.6482c25.9219,9.0854,52.2936,16.8202,78.3597,25.4874
		c-0.402,3.4413-0.7396,6.9146-1.3346,10.3558c-5.8534,19.4088-8.5548,39.5898-12.8966,59.3688
		c-5.4833,23.9919-7.5255,48.6432-13.2662,72.5709c-1.2219-4.7759-2.7659-9.4553-4.4381-14.0865
		c-6.0944-16.0803-10.6774-32.6593-15.8231-49.0613c6.8824-21.6764,11.8995-43.9799,15.8391-66.3639
		c-12.6392-5.4191-26.1306-8.4905-38.9949-13.2502c-0.1127,0.4985-0.3217,1.4794-0.4342,1.9779
		C1402.0342,1291.8513,1399.3165,1282.8944,1398.0461,1273.6482z"/>
	<path fill="#9F9B97" stroke="#9F9B97" stroke-width="0.2" d="M1190.0945,1276.2693c11.6906,2.8302,22.7859,7.5579,34.2351,11.192
		c12.4624,4.8081,25.1177,9.1014,37.6443,13.7167c-0.0483,1.1738-0.1608,3.5538-0.2091,4.7438
		c-14.6653-3.6021-28.5427-9.6804-42.8704-14.3438c-9.6965-3.2644-19.2964-6.802-28.9608-10.1306
		C1189.9658,1280.1448,1190.0463,1277.5558,1190.0945,1276.2693z"/>
	<path fill="#FB4350" stroke="#FB4350" stroke-width="0.2" d="M1346.8623,1278.0542c17.8492,9.2623,33.399,27.5458,30.9387,48.8362
		c-7.0111-4.02-14.1025-8.0079-21.8212-10.5005c-0.0803,1.2864-0.2412,3.8593-0.3376,5.1458
		c7.1074,3.6503,14.1185,7.4934,21.0652,11.4653c-2.4924,5.5477-5.2583,11.0472-9.1979,15.7427
		c-23.6864-12.5106-47.5176-24.7317-71.204-37.194c10.0985-5.4513,19.1678-12.5427,29.0251-18.4121
		C1332.8402,1288.603,1340.0442,1283.5859,1346.8623,1278.0542z"/>
	<path fill="#818181" stroke="#818181" stroke-width="0.2" d="M1405.4915,1298.6693c12.8643,4.7599,26.3557,7.8312,38.9949,13.2502
		c-3.9397,22.3839-8.9568,44.6874-15.8391,66.3639c-7.5739-25.97-16.0321-51.6664-23.59-77.6362
		C1405.1699,1300.1488,1405.3788,1299.1678,1405.4915,1298.6693z"/>
	<path fill="#DADADA" stroke="#DADADA" stroke-width="0.2" d="M1462.1748,1368.8604c4.3418-19.7789,7.0432-39.9598,12.8965-59.3689
		c5.0654,3.0875,10.2272,6.0624,15.389,9.005c-6.4644,38.5126-13.2502,76.9608-19.7789,115.4734
		c-3.1838,15.9679-4.9205,32.2091-8.8604,48.0321c-6.2069-12.832-9.9537-26.6774-12.9126-40.5708
		C1454.6492,1417.5035,1456.6914,1392.8523,1462.1748,1368.8604z"/>
	<path fill="#999C9B" stroke="#999C9B" stroke-width="0.2" d="M1355.9799,1316.39c7.7186,2.4924,14.8101,6.4803,21.8212,10.5005
		c5.8372,3.2483,11.6743,6.4965,17.5758,9.6323c-0.1448,1.1899-0.4181,3.5698-0.5468,4.7438
		c-6.4321-1.8652-12.4462-4.792-18.1227-8.2654c-6.9467-3.9718-13.9578-7.8151-21.0652-11.4653
		C1355.7386,1320.2493,1355.8995,1317.6764,1355.9799,1316.39z"/>
	<path fill="#969696" stroke="#969696" stroke-width="0.2" d="M1109.4352,1324.4463c1.8492,0.402,3.7145,0.7878,5.5959,1.2061
		c-2.589,13.6522-6.0945,27.0793-9.2141,40.619c-1.1577,0.0322-3.4733,0.0966-4.6311,0.1287
		C1102.6171,1352.1527,1107.9236,1338.6774,1109.4352,1324.4463z"/>
	<path fill="#959595" stroke="#959595" stroke-width="0.2" d="M1129.1337,1331.2001c1.6241,0.0482,3.2804,0.1123,4.9366,0.2733
		c-1.817,11.1759-3.1035,22.4161-4.1648,33.6885c-1.1899,0.1125-3.6021,0.3378-4.8081,0.4503
		C1125.9497,1354.0985,1127.1558,1342.585,1129.1337,1331.2001z"/>
	<path fill="#939393" stroke="#939393" stroke-width="0.2" d="M1166.2954,1344.6753c0.7719-0.1929,2.3156-0.6108,3.0874-0.804
		l1.3186,0.4987c1.4473,8.6835,2.7174,17.3988,3.5377,26.1949c-1.2222-0.0964-3.6664-0.2894-4.8884-0.3859
		C1168.3215,1361.6724,1166.6171,1353.2462,1166.2954,1344.6753z"/>
	<path fill="#909090" stroke="#909090" stroke-width="0.2" d="M1399.3165,1346.4121c0.8845-0.3378,2.6533-0.9971,3.5538-1.3347
		c0.3861,6.8502-0.1929,13.6844-0.6753,20.5186c-1.1257-0.0643-3.3929-0.1769-4.5347-0.2412
		C1398.0623,1359.0353,1397.5959,1352.5548,1399.3165,1346.4121z"/>
	<path fill="#A7A7A7" stroke="#A7A7A7" stroke-width="0.2" d="M1372.9608,1383.3005c6.416-0.4342,12.9286-1.1578,19.3607-0.2252
		c2.6693,1.5598,2.6854,5.001,3.1196,7.7347c1.5597,20.4382,3.5698,40.8442,5.4513,61.2662
		c0.1769,3.4734-0.1769,6.979-0.5627,10.4684c-8.2493,1.2382-16.4182,4.4382-24.8442,3.5538
		c-3.3287-3.1357-1.7528-8.3618-2.2996-12.4141C1373.5879,1430.2231,1371.5779,1406.7135,1372.9608,1383.3005z"/>
	<path fill="#DADADA" stroke="#DADADA" stroke-width="0.2" d="M1030.6733,1400.1367c9.1659-3.8594,17.7688-8.9729,25.6322-15.0513
		c10.7739,0.6917,21.5637,0.5308,32.3376,0.4663c26.2593-0.1608,52.5186,0.6754,78.7939,0.2091
		c5.1779,0,10.4362-0.3538,15.5498,0.6914c3.2964,2.4603,1.8813,7.3165,2.3317,10.8865
		c-1.0292,27.1116,0.7557,54.4161-2.3317,81.3992c-9.8895,1.994-20.0522,0.7236-30.0543,1.3025
		c-25.6483,1.3829-51.3447,0.6433-76.9929,1.5438c-24.7317,0.9487-49.4795,0.9005-74.1951,1.3668
		c-3.2-0.3861-7.4935,0.7557-9.4391-2.5085c-0.3699-4.6635,1.9296-8.9247,3.9075-12.9608
		c9.5518-17.8654,18.5247-36.0361,28.3176-53.7729C1026.9427,1409.3507,1028.9045,1404.7839,1030.6733,1400.1367z"/>
	<path fill="#DADADA" stroke="#DADADA" stroke-width="0.2" d="M1338.1627,1389.0413c3.7307-0.4503,7.4935-0.5308,11.2563-0.2091
		c-2.2834,12.9447-2.1066,26.0824-2.203,39.1719c-1.1417,15.4854-0.5789,31.019-1.4152,46.5205
		c-2.9747-0.2412-5.9336-0.4502-8.8763-0.6432C1337.1176,1445.6121,1338.0342,1417.3267,1338.1627,1389.0413z"/>
	<path fill="#DADADA" stroke="#DADADA" stroke-width="0.2" d="M1239.9919,1389.3468c2.7498-0.3538,5.5316-0.3699,8.3296-0.4342
		c-2.5245,28.0924-4.9849,56.1688-7.1558,84.2933c-3.2161,0.0322-6.4321,0.0643-9.6161,0.1287
		c1.2061-24.5065,4.1166-48.8844,5.7568-73.3588C1237.8533,1396.406,1237.5637,1392.2734,1239.9919,1389.3468z"/>
	<path fill="#D9DADA" stroke="#D9DADA" stroke-width="0.2" d="M1307.1919,1389.202c3.3126,0.0321,6.6254,0.0803,9.9698,0.1768
		c2.0422,12.8644,1.2544,25.9539,2.3478,38.9147c0.5627,12.7678,1.9136,25.5518,1.0613,38.3357
		c-2.8463-0.0161-5.6603-0.0161-8.4905,0C1309.797,1440.8683,1310.392,1414.8986,1307.1919,1389.202z"/>
	<path fill="#DADADA" stroke="#DADADA" stroke-width="0.2" d="M1278.0542,1394.1548c2.8945-0.0483,5.8051-0.0804,8.7317-0.0964
		c0.1448,16.1447-1.2219,32.225-1.8169,48.3538c-0.0966,12.2532-0.9166,24.4904-1.9618,36.7115
		c-2.9427-0.1769-5.8854-0.3538-8.8281-0.4985c0.402-14.6492,0.8844-29.3145,1.5116-43.9639
		C1277.1056,1421.1859,1275.9799,1407.5659,1278.0542,1394.1548z"/>
	<path fill="#D9D9D9" stroke="#D9D9D9" stroke-width="0.2" d="M1357.2502,1512.603c37.1617-2.01,74.42,0.0804,111.5497-2.605
		l-0.7557,1.2219c-3.4573,0.1287-6.9307,0.0964-10.3557,0.1769c2.0422,5.3226,4.0684,10.6935,5.9175,16.1125
		c-3.3768,0.5789-7.9758-1.415-10.5809,0.9971c-5.4352,13.4915-8.7477,27.7548-13.604,41.4713
		c-7.397-2.7015-14.8101-5.371-22.3678-7.574c3.1517-11.4492,7.8312-22.3518,11.9316-33.4633
		c-18.5729-1.2544-37.1779,0.5145-55.7671,0.4663c-25.8733,1.9941-51.8431,0.9647-77.7487,2.412
		c-19.2161,1.0936-38.4642,0.3861-57.6804,1.5759c-15.598,1.0452-31.2441,0.2894-46.8583,0.9165
		c-0.1125,0.8199-0.3378,2.4764-0.4663,3.3126c-1.0292-0.0161-3.0713-0.0643-4.1005-0.0804
		c-5.194-0.8523-10.3719-1.8813-15.6301-1.8492c-22.416-0.2572-44.7838,1.6724-67.184,1.5437
		c-11.3849-1.4954-22.8663-1.0773-34.3156-1.1738c-4.5829-0.1287-9.005,1.1096-13.3307,2.4282
		c-22.1749,0.8844-44.3497,1.7528-66.5246,1.9457c-11.9156-1.5597-23.9437-0.9487-35.9075-1.1738
		c-4.1005-0.1768-8.0241,1.0613-11.8513,2.3317c-2.6854,0.2896-5.3708,0.5146-8.0563,0.7719
		c0.5789-8.4744,1.4794-16.9003,2.4924-25.3105c44.9769-0.7236,89.9538-1.0131,134.9306-1.222
		c46.0704-1.9779,92.2211-0.4503,138.3076-1.9779C1258.613,1513.2462,1307.9316,1512.8442,1357.2502,1512.603z"/>
	<path fill="#C3C3C3" stroke="#C3C3C3" stroke-width="0.2" d="M1373.218,1529.407c18.5891,0.0483,37.194-1.7203,55.7671-0.4663
		c-4.1006,11.1116-8.78,22.0142-11.9316,33.4634c-0.9005,2.8141-1.7528,5.6603-2.589,8.5226
		c-76.1085-10.613-152.0563-22.3196-228.1005-33.3829c1.0292,0.0161,3.0713,0.0643,4.1005,0.0803
		c0.1287-0.8362,0.3538-2.4924,0.4663-3.3125c15.6141-0.6272,31.2604,0.1287,46.8584-0.9166
		c19.2161-1.1899,38.4642-0.4824,57.6803-1.5758C1321.3749,1530.3719,1347.3447,1531.401,1373.218,1529.407z"/>
	<path fill="#FFFFFF" stroke="#FFFFFF" stroke-width="0.2" d="M1055.9036,1538.4924c4.3256-1.3186,8.7477-2.5568,13.3306-2.4281
		c11.4493,0.0964,22.9307-0.3217,34.3157,1.1738C1087.6624,1537.6401,1071.7749,1538.2512,1055.9036,1538.4924z"/>
	<path fill="#FFFFFF" stroke="#FFFFFF" stroke-width="0.2" d="M941.6201,1541.5959c3.8271-1.2703,7.7507-2.5085,11.8512-2.3317
		c11.9639,0.2252,23.992-0.3859,35.9075,1.1738C973.4593,1540.792,957.5397,1541.5477,941.6201,1541.5959z"/>
</g>
</svg>
