<?xml version="1.0" encoding="UTF-8" standalone="no"?>
<!-- Created with Inkscape (http://www.inkscape.org/) -->

<svg
   xmlns:dc="http://purl.org/dc/elements/1.1/"
   xmlns:cc="http://creativecommons.org/ns#"
   xmlns:rdf="http://www.w3.org/1999/02/22-rdf-syntax-ns#"
   xmlns:svg="http://www.w3.org/2000/svg"
   xmlns="http://www.w3.org/2000/svg"
   xmlns:xlink="http://www.w3.org/1999/xlink"
   xmlns:sodipodi="http://sodipodi.sourceforge.net/DTD/sodipodi-0.dtd"
   xmlns:inkscape="http://www.inkscape.org/namespaces/inkscape"
   width="483.4704"
   height="428.77679"
   id="svg2"
   version="1.1"
   inkscape:version="0.47 r22583"
   sodipodi:docname="pen.svg">
  <defs
     id="defs4">
    <linearGradient
       id="linearGradient3972">
      <stop
         style="stop-color:#737373;stop-opacity:1;"
         offset="0"
         id="stop3976" />
      <stop
         id="stop3978"
         offset="0.47660646"
         style="stop-color:#d5d5f7;stop-opacity:1;" />
      <stop
         style="stop-color:#b9b9b9;stop-opacity:1;"
         offset="1"
         id="stop3980" />
    </linearGradient>
    <linearGradient
       id="linearGradient3940">
      <stop
         style="stop-color:#333333;stop-opacity:1;"
         offset="0"
         id="stop3942" />
      <stop
         id="stop3952"
         offset="0.29354596"
         style="stop-color:#737373;stop-opacity:1;" />
      <stop
         style="stop-color:#b9b9b9;stop-opacity:1;"
         offset="0.4309347"
         id="stop3954" />
      <stop
         id="stop3956"
         offset="0.48086047"
         style="stop-color:#b9b9b9;stop-opacity:1;" />
      <stop
         style="stop-color:#333333;stop-opacity:1;"
         offset="1"
         id="stop3944" />
    </linearGradient>
    <linearGradient
       id="linearGradient3590">
      <stop
         style="stop-color:#4d4d4d;stop-opacity:1;"
         offset="0"
         id="stop3592" />
      <stop
         id="stop3598"
         offset="0.3674641"
         style="stop-color:#b3b3b3;stop-opacity:1;" />
      <stop
         style="stop-color:#b3b3b3;stop-opacity:1;"
         offset="0.64902025"
         id="stop3600" />
      <stop
         style="stop-color:#4d4d4d;stop-opacity:1;"
         offset="1"
         id="stop3594" />
    </linearGradient>
    <inkscape:perspective
       sodipodi:type="inkscape:persp3d"
       inkscape:vp_x="0 : 526.18109 : 1"
       inkscape:vp_y="0 : 1000 : 0"
       inkscape:vp_z="744.09448 : 526.18109 : 1"
       inkscape:persp3d-origin="372.04724 : 350.78739 : 1"
       id="perspective10" />
    <filter
       inkscape:collect="always"
       id="filter4066"
       x="-0.1860055"
       width="1.3720109"
       y="-0.032893013"
       height="1.065786"
       color-interpolation-filters="sRGB">
      <feGaussianBlur
         inkscape:collect="always"
         stdDeviation="2.2204775"
         id="feGaussianBlur4068" />
    </filter>
    <filter
       inkscape:collect="always"
       id="filter4139"
       x="-0.10959857"
       width="1.2191972"
       y="-0.060859278"
       height="1.1217186"
       color-interpolation-filters="sRGB">
      <feGaussianBlur
         inkscape:collect="always"
         stdDeviation="9.1700499"
         id="feGaussianBlur4141" />
    </filter>
    <linearGradient
       inkscape:collect="always"
       xlink:href="#linearGradient3940"
       id="linearGradient4194"
       gradientUnits="userSpaceOnUse"
       gradientTransform="translate(118.86784,-16.530458)"
       x1="251.18053"
       y1="623.66083"
       x2="290.67041"
       y2="623.66083" />
    <linearGradient
       inkscape:collect="always"
       xlink:href="#linearGradient3940"
       id="linearGradient4196"
       gradientUnits="userSpaceOnUse"
       gradientTransform="translate(118.47402,-139.467)"
       x1="251.18053"
       y1="623.66083"
       x2="290.67041"
       y2="623.66083" />
    <linearGradient
       inkscape:collect="always"
       xlink:href="#linearGradient3972"
       id="linearGradient4198"
       gradientUnits="userSpaceOnUse"
       gradientTransform="translate(-31.016282,-94.298919)"
       x1="398.85825"
       y1="641.93536"
       x2="442.76089"
       y2="641.93536" />
    <linearGradient
       inkscape:collect="always"
       xlink:href="#linearGradient3940"
       id="linearGradient4200"
       gradientUnits="userSpaceOnUse"
       gradientTransform="translate(118.86788,23.350446)"
       x1="251.18053"
       y1="623.66083"
       x2="290.67041"
       y2="623.66083" />
    <filter
       inkscape:collect="always"
       id="filter4246"
       x="-0.07394529"
       width="1.1478906"
       y="-0.23654732"
       height="1.4730946">
      <feGaussianBlur
         inkscape:collect="always"
         stdDeviation="9.5881337"
         id="feGaussianBlur4248" />
    </filter>
  </defs>
  <sodipodi:namedview
     id="base"
     pagecolor="#ffffff"
     bordercolor="#666666"
     borderopacity="1.0"
     inkscape:pageopacity="0.0"
     inkscape:pageshadow="2"
     inkscape:zoom="0.95808113"
     inkscape:cx="162.3737"
     inkscape:cy="250.98765"
     inkscape:document-units="px"
     inkscape:current-layer="layer1"
     showgrid="false"
     showguides="true"
     inkscape:guide-bbox="true"
     inkscape:window-width="1280"
     inkscape:window-height="752"
     inkscape:window-x="0"
     inkscape:window-y="0"
     inkscape:window-maximized="0" />
  <metadata
     id="metadata7">
    <rdf:RDF>
      <cc:Work
         rdf:about="">
        <dc:format>image/svg+xml</dc:format>
        <dc:type
           rdf:resource="http://purl.org/dc/dcmitype/StillImage" />
        <dc:title></dc:title>
      </cc:Work>
    </rdf:RDF>
  </metadata>
  <g
     inkscape:label="Layer 1"
     inkscape:groupmode="layer"
     id="layer1"
     transform="translate(-294.93335,-354.90133)">
    <path
       style="fill:#d8d8d8;fill-opacity:1;fill-rule:evenodd;stroke:none;filter:url(#filter4246)"
       d="M 961.53125,357.4375 C 882.4941,411.446 798.75914,621.77602 775,704.1875 c 0.15976,-0.0296 0.31597,-0.0422 0.46875,-0.0625 l -2.03125,3.8125 c -5.03936,17.32603 0.44358,11.08738 6.53125,3.5 L 782.0625,707.5 c 0.16193,0.23136 0.35226,0.48374 0.5,0.6875 43.27115,-63.94545 266.8373,-339.29313 178.96875,-350.75 z"
       id="path4090"
       sodipodi:nodetypes="cccccccc"
       transform="matrix(0.36408274,1.4890304,-0.95717101,0.89387123,735.79796,-1076.4679)"
       inkscape:export-filename="/Users/grzegorz/Sites/img/cliparty/pen.png"
       inkscape:export-xdpi="90"
       inkscape:export-ydpi="90" />
    <path
       style="fill:#0000ff;fill-opacity:1;fill-rule:evenodd;stroke:none"
       d="m 476.19424,716.04552 c 21.31438,-10.11612 17.74462,-12.62366 -5.93439,-4.56215 -20.63119,6.32232 -47.74671,15.86292 -61.80527,18.89125 -10.26867,1.28497 3.9165,-7.3547 23.36135,-16.96567 9.31227,-4.64387 20.51327,-10.35133 16.24229,-10.14266 -5.54144,0.10885 -22.6458,5.44443 -31.45589,7.01826 -13.20183,4.24076 -18.34252,9.2091 -4.3322,3.78436 9.01107,-2.93417 13.29583,-3.50694 18.62918,-4.67433 6.11008,-1.46657 4.75868,0.33866 -3.9329,4.5029 -7.28159,3.60755 -14.50654,7.20748 -19.37943,10.06389 -13.7919,7.57452 -21.85909,13.65213 -10.16556,11.4446 14.7572,-2.96037 45.64863,-13.92704 67.90994,-20.61781 12.11969,-3.85912 15.27554,-3.41998 6.76579,1.23345 -2.28801,1.48204 -1.95917,2.09976 4.09711,0.0239 z"
       id="path4155"
       inkscape:export-filename="/Users/grzegorz/Sites/img/cliparty/pen.png"
       inkscape:export-xdpi="90"
       inkscape:export-ydpi="90" />
    <g
       id="g4070"
       transform="matrix(0.88178582,0.47165005,-0.47165005,0.88178582,489.40262,-136.56365)"
       inkscape:export-filename="/Users/grzegorz/Sites/img/cliparty/pen.png"
       inkscape:export-xdpi="90"
       inkscape:export-ydpi="90">
      <path
         sodipodi:nodetypes="ccccc"
         id="rect3958"
         d="m 371.54834,547.05949 36.48988,0 0,150.14176 c -13.36745,7.22492 -25.27659,5.70002 -36.48988,0 l 0,-150.14176 z"
         style="fill:url(#linearGradient4194);fill-opacity:1;fill-rule:evenodd;stroke:#000000;stroke-width:3;stroke-linecap:round;stroke-linejoin:round;stroke-miterlimit:4;stroke-opacity:1" />
      <path
         sodipodi:nodetypes="ccccc"
         id="rect3962"
         d="m 371.15453,394.12299 c 5.22141,-56.78588 30.74364,-56.01952 36.48987,0 6.5194,62.65501 3.82115,93.62296 0,152.14175 l -36.48987,0 c -2.56316,-60.04725 -5.58419,-92.0945 0,-152.14175 z"
         style="fill:url(#linearGradient4196);fill-opacity:1;fill-rule:evenodd;stroke:#000000;stroke-width:3;stroke-linecap:round;stroke-linejoin:round;stroke-miterlimit:4;stroke-opacity:1" />
      <path
         sodipodi:nodetypes="ccccc"
         id="rect3938"
         d="m 370.45532,541.54629 c 12.39371,2.61981 26.58983,3.29052 38.48988,0 2.24822,4.02294 1.12859,7.08363 0,10.14176 -11.90005,2.89569 -26.09617,2.53453 -38.48988,0 -1.11776,-3.19429 -1.81119,-6.45931 0,-10.14176 z"
         style="fill:url(#linearGradient4198);fill-opacity:1;fill-rule:evenodd;stroke:#000000;stroke-width:3;stroke-linecap:round;stroke-linejoin:round;stroke-miterlimit:4;stroke-opacity:1" />
      <path
         sodipodi:nodetypes="ccccc"
         id="rect4004"
         d="m 385.04033,744.25807 7.41168,0 0,6.31619 c -1.78943,9.56169 -3.68349,17.65466 -7.41168,0 l 0,-6.31619 z"
         style="fill:#d8d8d8;fill-opacity:1;fill-rule:evenodd;stroke:#000000;stroke-width:2;stroke-miterlimit:4;stroke-opacity:1;stroke-dasharray:none" />
      <path
         sodipodi:nodetypes="ccccc"
         id="rect3997"
         d="m 371.54835,696.94038 c 12.16329,7.26961 24.32658,7.84931 36.48987,0 -0.70616,16.44367 -7.36365,42.2376 -14.82266,49.55506 -1.9582,-0.95139 -4.88493,-2.90273 -8.54776,0.0255 -6.49115,-7.29009 -11.28147,-33.50477 -13.11945,-49.58052 z"
         style="fill:url(#linearGradient4200);fill-opacity:1;fill-rule:evenodd;stroke:#000000;stroke-width:3;stroke-linecap:round;stroke-linejoin:round;stroke-miterlimit:4;stroke-opacity:1" />
      <path
         transform="matrix(1.2232197,0,0,0.69586106,-180.78394,99.095147)"
         d="m 469.82402,398.59326 c 0,8.18861 -1.14094,14.8268 -2.54835,14.8268 -1.40742,0 -2.54836,-6.63819 -2.54836,-14.8268 0,-8.18861 1.14094,-14.82679 2.54836,-14.82679 1.40741,0 2.54835,6.63818 2.54835,14.82679 z"
         sodipodi:ry="14.826794"
         sodipodi:rx="2.5483551"
         sodipodi:cy="398.59326"
         sodipodi:cx="467.27567"
         id="path4050"
         style="fill:#000000;fill-opacity:1;fill-rule:evenodd;stroke:#000000;stroke-width:2;stroke-linecap:round;stroke-linejoin:round;stroke-miterlimit:4;stroke-opacity:1;stroke-dasharray:none"
         sodipodi:type="arc" />
      <path
         sodipodi:nodetypes="ccccccsccccc"
         id="path4052"
         d="m 401.23753,375.18577 0,0.0312 -12.6875,-5.32843 c -2.50451,4.72879 -2.73545,9.64705 0,14.8125 l 12.6875,5.32843 0,114.71875 c -4.25169,0.0141 -7.3125,3.56241 -7.3125,9.24144 0,7.2144 4.90865,15.124 10.96875,17.66908 12.58657,2.15353 10.32506,-10.53067 9.9375,-14.4515 l 0,-119.25191 c 0.7925,-9.14197 -5.12832,-18.44521 -13.59375,-22.76961 l 0,5e-5 z"
         style="fill:#d8d8d8;fill-opacity:1;fill-rule:evenodd;stroke:none;filter:url(#filter4066)" />
      <path
         style="fill:#d8d8d8;fill-opacity:1;fill-rule:evenodd;stroke:#000000;stroke-width:2;stroke-linecap:round;stroke-linejoin:round;stroke-miterlimit:4;stroke-opacity:1;stroke-dasharray:none"
         d="m 404.4014,374.91435 0,0.0312 -12.6875,-5.32843 c -2.50451,4.72879 -2.73545,9.64705 0,14.8125 l 12.6875,5.32843 0,114.71875 c -4.25169,0.0141 -7.3125,3.56241 -7.3125,9.24144 0,7.2144 4.90865,15.124 10.96875,17.66908 12.58657,2.15353 10.32506,-10.53067 9.9375,-14.4515 l 0,-119.25191 c 0.7925,-9.14197 -5.12832,-18.44521 -13.59375,-22.76961 l 0,5e-5 z"
         id="path4048"
         sodipodi:nodetypes="ccccccsccccc" />
    </g>
  </g>
</svg>
