<?xml version="1.0" encoding="UTF-8" standalone="no"?>
<!-- Created with Inkscape (http://www.inkscape.org/) -->

<svg
   xmlns:dc="http://purl.org/dc/elements/1.1/"
   xmlns:cc="http://creativecommons.org/ns#"
   xmlns:rdf="http://www.w3.org/1999/02/22-rdf-syntax-ns#"
   xmlns:svg="http://www.w3.org/2000/svg"
   xmlns="http://www.w3.org/2000/svg"
   xmlns:sodipodi="http://sodipodi.sourceforge.net/DTD/sodipodi-0.dtd"
   xmlns:inkscape="http://www.inkscape.org/namespaces/inkscape"
   width="183.17188mm"
   height="190mm"
   viewBox="0 0 649.0342 673.22834"
   id="svg43564"
   version="1.1"
   inkscape:version="0.91 r13725"
   sodipodi:docname="OSHA-fallingtraining.svg">
  <defs
     id="defs43566" />
  <sodipodi:namedview
     id="base"
     pagecolor="#ffffff"
     bordercolor="#666666"
     borderopacity="1.0"
     inkscape:pageopacity="0.0"
     inkscape:pageshadow="2"
     inkscape:zoom="0.585"
     inkscape:cx="29.530536"
     inkscape:cy="724.46931"
     inkscape:document-units="px"
     inkscape:current-layer="g44195"
     showgrid="false"
     fit-margin-top="0"
     fit-margin-left="0"
     fit-margin-right="0"
     fit-margin-bottom="0"
     inkscape:window-width="1916"
     inkscape:window-height="1035"
     inkscape:window-x="4"
     inkscape:window-y="1"
     inkscape:window-maximized="1" />
  <metadata
     id="metadata43569">
    <rdf:RDF>
      <cc:Work
         rdf:about="">
        <dc:format>image/svg+xml</dc:format>
        <dc:type
           rdf:resource="http://purl.org/dc/dcmitype/StillImage" />
        <dc:title></dc:title>
      </cc:Work>
    </rdf:RDF>
  </metadata>
  <g
     inkscape:label="Layer 1"
     inkscape:groupmode="layer"
     id="layer1"
     transform="translate(-40.722275,-148.54626)">
    <g
       id="g44195"
       transform="matrix(5.6181462,0,0,6.1825547,11312.167,6465.0983)">
      <g
         id="g44275"
         transform="matrix(5.7464188,0,0,4.302293,10037.951,3613.6943)">
        <path
           style="fill:#ef1214"
           d="m -2082.349,-1067.9113 0.045,-1.9061 -1.144,-0.8476 c -0.6292,-0.4661 -1.2265,-0.8516 -1.3275,-0.8565 -0.101,0 -0.6573,0.4262 -1.2364,0.9579 -0.9978,0.9162 -1.07,0.9527 -1.3806,0.6973 -0.3138,-0.2581 -0.2731,-0.3194 0.965,-1.452 0.711,-0.6504 1.4017,-1.1826 1.5349,-1.1826 0.1332,0 1.1956,0.6733 2.3608,1.4962 1.5802,1.116 2.1077,1.5783 2.0761,1.8196 -0.029,0.2191 0.09,0.3198 -0.2363,0.3541 -0.2358,-0.01 -0.6473,0.051 -0.8045,0.042 0,0 0.035,0.4316 0.02,0.6178 -0.015,0.1862 -0.025,0.408 -0.038,0.7344 -0.048,1.247 -0.076,1.3274 -0.4656,1.3776 l -0.414,-0.092 0.045,-1.7606 z"
           id="path44279"
           inkscape:connector-curvature="0"
           sodipodi:nodetypes="ccccccssscccsccccc" />
        <path
           style="fill:#0a0a0a"
           d="m -2088.2407,-1055.7311 c 0,-1.4956 0.1263,-1.5659 2.8133,-1.5659 2.0883,0 2.1719,0.013 2.4433,0.3896 0.1902,0.2639 0.2634,0.6687 0.2266,1.2536 l -0.054,0.8638 -2.7144,0.045 -2.7144,0.045 0,-1.0304 z m 6.4078,-0.085 c 0,-1.3982 0.1566,-1.4808 2.8073,-1.4808 2.0265,0 2.173,0.022 2.4334,0.3595 0.1658,0.2151 0.2771,0.7023 0.2771,1.2131 l 0,0.8536 -2.7589,0 -2.7589,0 z m -4.8196,-2.2771 c -0.3551,-0.3227 -0.5203,-0.6348 -0.5203,-0.9829 0,-0.6958 0.8363,-1.4557 1.602,-1.4557 0.7657,0 1.6019,0.7599 1.6019,1.4557 0,0.3481 -0.1652,0.6602 -0.5202,0.9829 -0.6996,0.6357 -1.4638,0.6357 -2.1634,0 z m 6.8411,0.3185 c -0.5307,-0.2031 -0.9536,-0.8017 -0.9536,-1.3498 0,-0.6463 0.8664,-1.4073 1.602,-1.4073 0.7526,0 1.602,0.7604 1.602,1.4342 0,0.9552 -1.2664,1.6996 -2.2504,1.3229 z m -15.7271,-3.5299 c 0,-4.2997 -0.1345,-4.0796 2.4931,-4.0796 l 1.939,0 0.6764,0.7508 c 0.372,0.413 0.8538,0.9407 1.0707,1.1727 l 0.3944,0.4218 0.7319,-0.7683 c 0.7903,-0.8295 1.2886,-0.9637 1.602,-0.4315 0.2198,0.3731 -0.089,0.8677 -1.3938,2.2362 -0.5706,0.5983 -0.753,0.6963 -1.1335,0.6095 -0.2494,-0.057 -0.6765,-0.3959 -0.9491,-0.7533 -0.2726,-0.3575 -0.5449,-0.6501 -0.605,-0.6502 -0.06,-10e-5 -0.085,1.0917 -0.056,2.4262 l 0.053,2.4264 -2.4119,0 -2.4118,0 0,-3.3607 z m 8.7528,-3.3663 c -0.3205,-0.204 -0.361,-0.3043 -0.1958,-0.4852 0.1736,-0.19 0.085,-0.2281 -0.5312,-0.2281 -0.9198,0 -1.8841,-0.3538 -2.1377,-0.7844 -0.1217,-0.2066 -0.1923,-1.6862 -0.1923,-4.0291 l 0,-3.7026 0.4591,-0.3921 0.459,-0.3921 5.4488,-0.047 c 3.8966,-0.034 5.478,-0.115 5.8416,0.019 0.4779,0.4096 0.3379,0.2625 0.4779,0.4096 0.14,0.1471 0.4187,0.3222 0.4884,0.6339 0.07,0.3116 0.1231,0.8013 0.1461,1.3829 0.023,0.5816 0.029,1.3246 0.029,2.2818 l 0,3.483 -0.5191,0.5282 -0.519,0.5282 -4.0694,0.049 -4.0693,0.049 -0.2324,0.4771 c -0.2683,0.5508 -0.3366,0.5678 -0.8834,0.2198 z m 1.5702,-2.5043 c 1.5752,-1.7847 1.6776,-1.8204 0.7836,-0.2735 -0.4249,0.7352 -0.7749,1.3913 -0.7777,1.458 0,0.067 1.7045,0.1213 3.7941,0.1213 3.6364,0 3.8138,-0.015 4.1384,-0.3405 0.3117,-0.3131 0.339,-0.6266 0.339,-3.8959 l 0,-3.5554 -0.5079,-0.397 -0.5079,-0.397 -5.4263,0.047 -5.4264,0.047 -0.34,0.3819 c -0.3116,0.3499 -0.3401,0.6782 -0.3401,3.9223 0,4.2563 -0.031,4.1875 1.9154,4.1875 l 1.2034,0 1.1524,-1.3058 z m 4.4219,-3.5464 c -0.7185,-0.5336 -1.4665,-0.972 -1.6623,-0.9741 -0.4337,0 -1.2913,-0.5754 -1.1109,-0.7393 0.071,-0.065 0.2767,0 0.4563,0.1507 0.491,0.4038 0.8538,0.3277 1.3699,-0.2871 0.3782,-0.4506 0.4304,-0.6169 0.2761,-0.879 -0.2313,-0.3927 -0.239,-0.5063 -0.034,-0.5063 0.086,0 0.2559,0.2184 0.3776,0.4854 0.1773,0.3889 0.1764,0.5345 0,0.7326 -0.3187,0.3489 0.4137,1.0464 1.0989,1.0464 0.3719,0 0.5673,0.1212 0.7699,0.4772 0.3323,0.5839 0.3359,0.6551 0.033,0.6551 -0.1312,0 -0.3297,-0.182 -0.4412,-0.4044 -0.2174,-0.4336 -0.3404,-0.4783 -0.7179,-0.2609 -0.1817,0.1046 -0.062,0.2687 0.4895,0.6716 0.7036,0.5137 0.9078,0.8024 0.5679,0.8024 -0.089,0 -0.75,-0.4366 -1.4685,-0.9703 z m -1.8499,-1.7935 c -0.1553,-0.2284 0.1877,-0.5401 0.4391,-0.399 0.1064,0.06 0.1935,0.2136 0.1935,0.3418 0,0.2723 -0.4581,0.3138 -0.6326,0.057 z m -10.6955,6.647 c -1.5278,-0.5602 -1.0781,-2.751 0.5646,-2.751 0.747,0 1.6858,0.7181 1.6858,1.2896 0,0.5387 -0.4623,1.2167 -0.974,1.4286 -0.5363,0.222 -0.7458,0.2274 -1.2764,0.033 z"
           id="path44277"
           inkscape:connector-curvature="0"
           sodipodi:nodetypes="cscccccccsscscccscssscccsssccscccccccccsccccccccscscccccsssscccccscccscscsccccccsscccccccccsccssscccsccccscccssccc" />
      </g>
    </g>
  </g>
</svg>
